<svg id="Layer_1" data-name="Layer 1" xmlns="http://www.w3.org/2000/svg" viewBox="0 0 516.37 270"><defs><style>.cls-1{fill:#00afce;}.cls-2{fill:#222a5d;}</style></defs><path class="cls-1" d="M184.08,117.35a26.57,26.57,0,0,1-6.53-.67,16,16,0,0,1-4.65-2l1.68-4.47a15.6,15.6,0,0,0,8.38,2.24,8.42,8.42,0,0,0,9-9,7.6,7.6,0,0,0-1.89-5.31q-1.87-2.1-7-4.12a15.82,15.82,0,0,1-7.41-5.35,12.55,12.55,0,0,1-2.3-7.3,13.33,13.33,0,0,1,3.74-9.53,12.89,12.89,0,0,1,9.81-4,21.64,21.64,0,0,1,5.69.66,13.09,13.09,0,0,1,4.16,1.93l-1.54,4a17.37,17.37,0,0,0-3.46-1.61,12.78,12.78,0,0,0-4.15-.63,7.52,7.52,0,0,0-5.87,2.31,8.74,8.74,0,0,0-2.09,6.14,6.89,6.89,0,0,0,2.09,5.31,23.75,23.75,0,0,0,7.2,4,15.17,15.17,0,0,1,7.37,5.52,14.43,14.43,0,0,1-1.79,17.81A14.28,14.28,0,0,1,184.08,117.35Z"/><path class="cls-1" d="M220.61,117.35q-7.34,0-11-5.38t-3.7-14.11q0-8.88,3.67-14.22t11-5.34q7.47,0,11.11,5.31t3.63,14.25q0,8.79-3.67,14.14T220.61,117.35Zm0-35.14a6.73,6.73,0,0,0-6.74,4.4A29.12,29.12,0,0,0,212,97.86a27.51,27.51,0,0,0,1.85,11c1.23,2.8,3.48,4.19,6.74,4.19s5.49-1.4,6.7-4.22a28.2,28.2,0,0,0,1.82-11,29.7,29.7,0,0,0-1.82-11.28A6.66,6.66,0,0,0,220.61,82.21Z"/><path class="cls-1" d="M257.07,117.42q-6.84,0-10.09-3.22t-3.25-9.08V79h6.15v26.38a8.18,8.18,0,0,0,1.88,5.64,7.16,7.16,0,0,0,5.66,2.13,13.08,13.08,0,0,0,6.77-1.54V79h6.15v35.41a21.9,21.9,0,0,1-5.62,2.17A31.3,31.3,0,0,1,257.07,117.42Z"/><path class="cls-1" d="M291.72,116.93q-4.75,0-7.06-2.76a10.08,10.08,0,0,1-2.3-6.72V82.84H278V79h4.33V70.32l6.14-1.89V79h6.57v3.84H288.5v24.4a6.29,6.29,0,0,0,1.15,3.93,4.26,4.26,0,0,0,3.6,1.5c.38,0,1,0,1.82-.14v3.91c-.51.12-1,.23-1.54.33A8.76,8.76,0,0,1,291.72,116.93Z"/><path class="cls-1" d="M323.85,116.65V89.91a8.08,8.08,0,0,0-1.71-5.39q-1.72-2-6-2a16.88,16.88,0,0,0-3.87.42,11.45,11.45,0,0,0-3.46,1.47v32.27h-6.15V61.81h6.15V81a18.74,18.74,0,0,1,8.66-2.37q6.57,0,9.54,3.22a11.25,11.25,0,0,1,3,7.91v26.94Z"/><path class="cls-1" d="M344.24,100.16q0,6.28,3.08,9.5a11.06,11.06,0,0,0,8.38,3.22,21.71,21.71,0,0,0,5.27-.56,15.94,15.94,0,0,0,4-1.61l1.6,4.05a17.93,17.93,0,0,1-4.78,1.85,26.9,26.9,0,0,1-6.6.74q-7.68,0-12.22-4.93t-4.54-14.7q0-9.36,4.15-14.39a13.57,13.57,0,0,1,11-5q6.91,0,10.62,4.57t3.7,13.87Zm9.15-17.88a7.91,7.91,0,0,0-6.84,3.6q-2.52,3.6-2.52,11l18-2.75c0-4.14-.73-7.14-2.2-9A7.7,7.7,0,0,0,353.39,82.28Z"/><path class="cls-1" d="M391.11,83.05a15.23,15.23,0,0,0-3.7-.42,9.27,9.27,0,0,0-4.89,1.18v32.84h-6.15V81A22.35,22.35,0,0,1,382.66,79a63,63,0,0,1,9.92-.59Z"/><path class="cls-1" d="M420,116.65v-27a7.85,7.85,0,0,0-1.75-5.23q-1.74-2.1-6.14-2.1a21,21,0,0,0-3.92.31,17.4,17.4,0,0,0-3.21,1v33h-6.15V81a25.55,25.55,0,0,1,6-2,39.82,39.82,0,0,1,7.76-.66q7.19,0,10.37,3.25a10.89,10.89,0,0,1,3.18,7.92v27.18Z"/><path class="cls-1" d="M184.08,176.09a26.63,26.63,0,0,1-6.53-.66,16.58,16.58,0,0,1-4.65-2l1.68-4.47A15.72,15.72,0,0,0,183,171.2a8.41,8.41,0,0,0,9-9,7.64,7.64,0,0,0-1.89-5.31q-1.87-2.1-7-4.12a15.81,15.81,0,0,1-7.41-5.34,12.57,12.57,0,0,1-2.3-7.3,13.34,13.34,0,0,1,3.74-9.54,12.88,12.88,0,0,1,9.81-3.94,21.64,21.64,0,0,1,5.69.66,12.86,12.86,0,0,1,4.16,1.92l-1.54,4.05a16.8,16.8,0,0,0-3.46-1.6,12.78,12.78,0,0,0-4.15-.63,7.55,7.55,0,0,0-5.87,2.3,8.79,8.79,0,0,0-2.09,6.15,6.92,6.92,0,0,0,2.09,5.31,24,24,0,0,0,7.2,4,15.11,15.11,0,0,1,7.37,5.52,13.6,13.6,0,0,1,2.27,7.54,13.79,13.79,0,0,1-4.06,10.27A14.32,14.32,0,0,1,184.08,176.09Z"/><path class="cls-1" d="M218.79,175.67c-3.16,0-5.52-.92-7-2.75a10.13,10.13,0,0,1-2.31-6.73V141.58H205.1v-3.84h4.33v-8.67l6.15-1.89v10.56h6.57v3.84h-6.57V166a6.26,6.26,0,0,0,1.15,3.93,4.28,4.28,0,0,0,3.6,1.49c.37,0,1,0,1.82-.14v3.91c-.52.13-1,.24-1.54.34A9.61,9.61,0,0,1,218.79,175.67Z"/><path class="cls-1" d="M242.19,176.09q-7.2,0-10.75-2.9a10,10,0,0,1-3.57-8.21q0-6.91,5.52-10t15.51-4.13v-2.3c0-2.75-.74-4.68-2.2-5.8a9.88,9.88,0,0,0-6.11-1.67,16.67,16.67,0,0,0-4.75.66,25.65,25.65,0,0,0-4.33,1.71L230,139.84a23.59,23.59,0,0,1,5-1.92,24,24,0,0,1,6.56-.88,14.83,14.83,0,0,1,9.47,2.9c2.44,1.94,3.67,5,3.67,9.33v24.17a21,21,0,0,1-5.38,1.95A32.18,32.18,0,0,1,242.19,176.09ZM248.9,154q-7.83,1-11.49,3.25c-2.45,1.51-3.67,4-3.67,7.57q0,3.91,2.31,5.8t6.63,1.89a13,13,0,0,0,6.22-1.26Z"/><path class="cls-1" d="M279.35,141.79a15.23,15.23,0,0,0-3.7-.42,9.27,9.27,0,0,0-4.89,1.19v32.83h-6.15V139.77a21.73,21.73,0,0,1,6.29-2.06,61.58,61.58,0,0,1,9.92-.6Z"/><path class="cls-1" d="M323.22,176.09A15.16,15.16,0,0,1,310,169q-4.83-7.06-4.82-17.68T310,133.73a15.11,15.11,0,0,1,13.24-7.09,18.8,18.8,0,0,1,5.34.66,13.25,13.25,0,0,1,4,2L331,133.06a14.11,14.11,0,0,0-3-1.32,11.74,11.74,0,0,0-3.74-.56,9.93,9.93,0,0,0-9.42,5.79q-3,5.81-3,14.39c0,5.69,1,10.42,3.08,14.22a9.94,9.94,0,0,0,9.28,5.69,12.59,12.59,0,0,0,3.64-.45,13.77,13.77,0,0,0,3.07-1.44l1.68,4.06a12.72,12.72,0,0,1-4,1.95A19,19,0,0,1,323.22,176.09Z"/><path class="cls-1" d="M352.2,176.09q-7.18,0-10.75-2.9a10,10,0,0,1-3.56-8.21q0-6.91,5.51-10t15.51-4.13v-2.3q0-4.12-2.2-5.8a9.86,9.86,0,0,0-6.11-1.67,16.67,16.67,0,0,0-4.75.66,26.33,26.33,0,0,0-4.33,1.71l-1.47-3.63a23.59,23.59,0,0,1,5-1.92,24,24,0,0,1,6.57-.88,14.81,14.81,0,0,1,9.46,2.9c2.45,1.94,3.67,5,3.67,9.33v24.17a21,21,0,0,1-5.38,1.95A32.18,32.18,0,0,1,352.2,176.09ZM358.91,154c-5.21.65-9.05,1.73-11.49,3.25s-3.67,4-3.67,7.57q0,3.91,2.31,5.8c1.53,1.26,3.75,1.89,6.63,1.89a13,13,0,0,0,6.22-1.26Z"/><path class="cls-1" d="M389.37,141.79a15.31,15.31,0,0,0-3.71-.42,9.32,9.32,0,0,0-4.89,1.19v32.83h-6.14V139.77a21.66,21.66,0,0,1,6.28-2.06,61.58,61.58,0,0,1,9.92-.6Z"/><path class="cls-1" d="M401.45,158.91q0,6.28,3.07,9.5a11.05,11.05,0,0,0,8.38,3.21,21.85,21.85,0,0,0,5.28-.56,15.65,15.65,0,0,0,4-1.61l1.61,4.06a18.41,18.41,0,0,1-4.78,1.85,27.06,27.06,0,0,1-6.61.73q-7.68,0-12.22-4.92t-4.54-14.71q0-9.36,4.16-14.39a13.56,13.56,0,0,1,11-5q6.92,0,10.62,4.58t3.7,13.86ZM410.6,141a8,8,0,0,0-6.85,3.59q-2.5,3.6-2.51,11l18-2.74c0-4.14-.74-7.15-2.2-9A7.7,7.7,0,0,0,410.6,141Z"/><path class="cls-1" d="M0,196.23c21.51-.34,43-.49,64.55-.74l64.54-.42c21.52-.18,43-.15,64.55-.22l64.54-.13,64.55.13c21.51.07,43,0,64.55.21l64.54.42c21.52.26,43,.4,64.55.75-21.52.34-43,.49-64.55.74l-64.54.42c-21.52.18-43,.14-64.55.21l-64.55.14-64.54-.14c-21.52-.07-43,0-64.55-.22L64.55,197c-21.52-.25-43-.39-64.55-.73"/><path class="cls-2" d="M183.32,207.23c-4.25,10.39-5.51,21.51-5.36,32.83.67-.2,1.25-.34,1.88-.58,1.16-.34,1.45,1,.39,1.3a17.57,17.57,0,0,1-2.18.58,244.94,244.94,0,0,0,2.61,28c.05.48-1.83.87-1.88.48-1.16-9.14-2.42-18.52-2.61-27.95A80.37,80.37,0,0,1,165,243.78a46.08,46.08,0,0,0-2.56,11,20.94,20.94,0,0,1,.29,2.9c.09.82-2.32,1.54-2.32.53s.09-2.18.14-3.19a31.93,31.93,0,0,0-3.92-11c-.29-.58.68-1.2,1.26-1.2,1.89,0,3.77,0,5.66-.15,2.22-6,14-34.72,18.23-35.73C182,206.84,183.32,207,183.32,207.23Zm-25.19,36.89a74,74,0,0,1,2.9,8.22c.44-2,1.36-6.48,2-8.37C161.37,244.07,159.78,244.12,158.13,244.12Zm18-3.63c-.25-10.73.92-21.42,4.78-31.52-3.19,4.3-13.54,28.28-15.52,33.41A63.12,63.12,0,0,0,176.17,240.49Z"/><path class="cls-2" d="M185.79,236.09c-.39,5.08,0,9.19,1.74,9.48,4,.72,7.16-6.29,7.93-8.95.15-.48,1.06-.33.92,0-.87,2.95-4.55,12.33-9.53,11-7.83-2.13.29-35.64,5.85-33.94s-1.45,18.56-6,22.14A1.84,1.84,0,0,1,185.79,236.09Zm.1-.87c6.09-5.9,8.46-19.44,6.43-20C190,214.67,186.76,226.18,185.89,235.22Z"/><path class="cls-2" d="M197.59,233.68c-.39,1.16-1.55,7.3-.68,8.17s3.34-6.72,3.63-7.45c.19-.44,2.08-.72,1.93-.44-.05.44-.14.92-.24,1.41-.1,2.9-.14,9.47,1.5,9.18,2.32-.43,2-12.08,2-14.5,0-.58,1.79-.87,1.79-.49.1,3.24.58,14.9-3.34,16.15-3,1-3.82-2-4-5.27-1,1.5-2.18,2.61-3.58,2.66-3.19.2-1.35-7.44-.87-9.14C195.9,233.53,197.73,233.34,197.59,233.68Z"/><path class="cls-2" d="M217.85,231.5c0,.68-.15,8.9,1.3,9.19.87.14,3.92-3.29,4.21-4.07s1.35-.72,1,.2c-.58,1.59-4.21,6.52-6.48,5.22-1.41-.77-1.89-4-2-6.29-1.16,2.76-2.66,5.66-5,6.48-4.4,1.65-2.37-5.22-.19-8.17a4.73,4.73,0,0,1,4.74-1.74c.1-.29.19-.53.48-.63C216.11,231,217.9,230.68,217.85,231.5Zm-6.92,9.77c.87-.34,2.86-4.89,4-7.64-.82-.73-1.94-.39-2.66.77C211.08,236.33,209.34,241.85,210.93,241.27Z"/><path class="cls-2" d="M225.78,230.63c-.15.58-2.52,6.53-.49,6.33.87-.09,3.49-3,4.65-4.16.14-1.16,1.5-3.53,2.51-2.51s-.87,2.32-1.3,2.76c.62,1.11.82,4,.38,7.25a65,65,0,0,1,5.9-4.11c.34-.19,1.21.19.48.68a57.33,57.33,0,0,0-6.62,4.73c-.82,4.89-2.95,10.35-6.58,12.72-.24.1-1.59.68-1.69.24-.58-4.74,2.56-9.09,6.43-12.57.29-2.71.24-5.37.34-7.45-1.3,1.46-2.76,3.2-4.45,3.44-4.35.63-1.88-5.18-1.45-7.11C224.13,230.15,226,229.9,225.78,230.63Zm3.53,12.86c-2.66,2.76-4.6,5.95-4.5,9.57C227.66,250.55,228.78,247,229.31,243.49Z"/><path class="cls-2" d="M241.25,231.16a6.08,6.08,0,0,0-2.71,4.5c0,2,1.7,3.14,2.57,5.36a62,62,0,0,1,5.41-4.64c.29-.24,1.36.2.63.63a30.06,30.06,0,0,0-5.66,5.22c.87,4.06-.72,10.79-4.45,11.37-5.6.91-.09-8,2.47-11-1.35-4-5.12-5.51-.29-11.56C239.56,230.63,241,229.86,241.25,231.16Zm-1.5,13.15c-1.79,2.47-5.07,8.27-3.09,8.51C238.35,252.58,239.8,247.46,239.75,244.31Z"/><path class="cls-2" d="M270.36,210.56c-.24.58-1.11.87-1.31,1.45l-2.56,6.14c6.34-2.08,13-4.11,14.75-4.49,1.16-.2,1.5,1,.34,1.25A140.45,140.45,0,0,0,266,219.56c-2.71,7-5.08,14.36-5.8,21.71a48.41,48.41,0,0,1,1.11,14.16c.14.73-1.6,1.16-1.84.44a42.66,42.66,0,0,1-.77-17.8c-1.31-5-2.9-9.62-3.73-14.74-.24,0-.67,0-.77-.15-.87-1.69.92-2.42,1.5-1.88l.68.58c1.78-.78,4.69-1.84,8-3,1.16-2.95,2.47-5.85,3.63-8.75C268.33,209.45,270.36,209.16,270.36,210.56Zm-13.93,12.28A124.08,124.08,0,0,0,259.05,236a99.52,99.52,0,0,1,4.83-15.67C262.19,220.67,258.71,222.12,256.43,222.84ZM260,245.13a36.92,36.92,0,0,0,.78,8A43.26,43.26,0,0,0,260,245.13Z"/><path class="cls-2" d="M271.86,217.28c-2.47,12-4.31,13.35-5.66,23.65a24.64,24.64,0,0,1,3.68-5.37c.58-.34,1.69-.77,2.27-.19.87.87-2.76,15.47,5.32,1.16.29-.53,1.16-.24,1,.19-8.65,15.33-8.22,4.64-8.17.73-1.59,2.56-4.11,7.25-4.64,8-.1.58-1.89.87-1.84.29,1.84-13.82,3.44-14.5,6.24-28.18C270.12,216.94,272,216.65,271.86,217.28Z"/><path class="cls-2" d="M287.23,236.62c.2-.67,1.36-.67,1.17,0-1,2.8-4.5,8.55-8.13,8.26-7.64-.58-1.16-16.58,3.53-15.66,3.48.72,1,8-4.79,8.36-.58,3-.38,5.85,1.41,6.05C282.88,243.88,286.56,238.41,287.23,236.62Zm-8-.24c3.38,0,4.78-4.93,3.77-5.51C281.77,230.15,280.13,233.14,279.26,236.38Z"/><path class="cls-2" d="M296.37,230.48c-4.25-2.75-5.61,9.19-8.27,12.48-.29.72-2,.87-1.83-.1.48-2.75.58-5.17,1.16-7.64.24-.87,2-.87,1.74.2a33.38,33.38,0,0,0-.73,4.64c2-5.13,2.71-13.25,9.24-10.59C298.55,229.81,297.15,231,296.37,230.48Z"/><path class="cls-2" d="M306,236.62c.2-.67,1.36-.67,1.17,0-1,2.8-4.5,8.55-8.13,8.26-7.64-.58-1.16-16.58,3.53-15.66,3.48.72,1,8-4.79,8.36-.58,3-.38,5.85,1.41,6.05C301.69,243.88,305.37,238.41,306,236.62Zm-8-.24c3.38,0,4.78-4.93,3.77-5.51C300.58,230.15,298.94,233.14,298.07,236.38Z"/><path class="cls-2" d="M325.48,217.67c-1.5,3.53-11.26,36.89-7.59,37.33,2.22.29,1.16-14.6,1.94-17,.38-.87,5-.49,6.91-1.45.77-.39,1.26.38,0,1-2.61,1.21-4.35.68-5.22,1.31-.39,3-.24,18.57-3.77,19-8.42,1.16,4.35-36.31,5.85-39.84C323.89,217.38,325.72,217.14,325.48,217.67Z"/><path class="cls-2" d="M328.34,236.29a17.36,17.36,0,0,0-2.18,6.86c-.05,2.18,1.55,1.69,2.47.58,1.69-2.08.77-5.07.14-7.59-.14-.43,1.69-.87,1.84-.48.58,1.74,3.58.77,4.69.43.34-.14,1,.58.14,1a11.05,11.05,0,0,1-4.11.53c.63,2.61,0,5.56-1.88,7.11-1.7,1.35-4.31,1.45-5-1.11-.58-2.18,1-5.56,2.13-7C326.89,236.14,328.48,236.14,328.34,236.29Z"/><path class="cls-2" d="M344.44,230.48c-4.26-2.75-5.61,9.19-8.27,12.48-.29.72-2,.87-1.84-.1.48-2.75.58-5.17,1.16-7.64.24-.87,2-.87,1.74.2a32.54,32.54,0,0,0-.72,4.64c2-5.13,2.7-13.25,9.23-10.59C346.61,229.81,345.21,231,344.44,230.48Z"/><path class="cls-2" d="M358.75,230.63c-.15.58-2.51,6.53-.48,6.33.87-.09,3.48-3,4.64-4.16.14-1.16,1.5-3.53,2.51-2.51s-.87,2.32-1.3,2.76c.62,1.11.82,4,.38,7.25a65,65,0,0,1,5.9-4.11c.34-.19,1.21.19.49.68a56.54,56.54,0,0,0-6.63,4.73c-.82,4.89-2.95,10.35-6.57,12.72-.25.1-1.6.68-1.7.24-.58-4.74,2.57-9.09,6.43-12.57.29-2.71.25-5.37.34-7.45-1.3,1.46-2.75,3.2-4.45,3.44-4.35.63-1.88-5.18-1.45-7.11C357.1,230.15,359,229.9,358.75,230.63Zm3.53,12.86c-2.66,2.76-4.59,5.95-4.5,9.57C360.64,250.55,361.75,247,362.28,243.49Z"/><path class="cls-2" d="M372,236.29a17.36,17.36,0,0,0-2.18,6.86c-.05,2.18,1.55,1.69,2.47.58,1.69-2.08.77-5.07.14-7.59-.14-.43,1.69-.87,1.84-.48.58,1.74,3.58.77,4.69.43.34-.14,1,.58.15,1a11.09,11.09,0,0,1-4.11.53c.62,2.61-.05,5.56-1.89,7.11-1.69,1.35-4.3,1.45-5-1.11-.58-2.18,1-5.56,2.13-7C370.55,236.14,372.14,236.14,372,236.29Z"/><path class="cls-2" d="M381.14,231.45c-.29,1-2.32,8.51-.44,8.51,1.6,0,3.63-6.43,3.72-7.16,0-.91,2.23-.87,2-.19-.09.19-.14.44-.24.73,0,1.79,0,6.52,1,7.06a15.74,15.74,0,0,0,3.67-4.11c.3-.58,1.41-.58,1,.29-.82,1.49-3.58,6.23-5.9,4.78-.87-.58-1.3-2-1.45-3.48-.92,1.74-2.22,3.24-4,3.24-4.31-.05-1.74-7.35-1.26-9.48C379.49,230.92,381.28,230.73,381.14,231.45Z"/><path class="cls-1" d="M132.91,150.48a33.8,33.8,0,0,1-.07,9.32,32.46,32.46,0,0,1-7.3,16.28,31.29,31.29,0,0,1-6.56,5.83,31.63,31.63,0,0,1-7.85,3.75,30.42,30.42,0,0,1-8.51,1.39,30,30,0,0,1-8.53-1,30.53,30.53,0,0,1-14.57-8.83A30.95,30.95,0,0,1,72.93,166a29.73,29.73,0,0,1-1.1-4.27,32.38,32.38,0,0,1,1.82-17.75,33.71,33.71,0,0,1,4.6-8.11A37.22,37.22,0,0,1,85.08,129a31.3,31.3,0,0,0-14.89,13.2,34.22,34.22,0,0,0-4.46,20.25,35.35,35.35,0,0,0,8.2,19.58,36,36,0,0,0,8.18,7.14,36.71,36.71,0,0,0,10,4.36,37.1,37.1,0,0,0,10.8,1.2,35.84,35.84,0,0,0,10.65-2.1,35.37,35.37,0,0,0,16.89-12.85,34.18,34.18,0,0,0,6.25-19.76,31.33,31.33,0,0,0-6.28-18.88,37.47,37.47,0,0,1,2.53,9.3"/><path class="cls-1" d="M158.73,156.31q-.63-3.06-1.36-6.12c-.51-2-1.06-4.07-1.67-6.09s-1.29-4-2.07-6.06a54.85,54.85,0,0,0-2.72-6,27.8,27.8,0,0,0-4-5.84,15,15,0,0,0-3.21-2.64,10.69,10.69,0,0,0-2.16-1,9.52,9.52,0,0,0-1.22-.34l-.64-.11-.4,0-.34,0a23.06,23.06,0,0,0-7.54.86,51.25,51.25,0,0,0-6.38,2.26c-2,.85-3.87,1.73-5.7,2.53s-3.57,1.57-5.25,2.13a18.69,18.69,0,0,1-4.63,1c-.19,0-.82,0-.77,0a.43.43,0,0,1-.16,0,2.12,2.12,0,0,1-.61-.44,12.26,12.26,0,0,1-2.18-3.59,54.58,54.58,0,0,1-2-5.25l-1.85-5.79c-.64-2-1.28-4-2.09-6.06a41.09,41.09,0,0,0-3-6.27,21.59,21.59,0,0,0-2.32-3.16,12.94,12.94,0,0,0-3.54-2.8,11,11,0,0,0-2.33-.87,10,10,0,0,0-1.22-.21c-.21,0-.41,0-.61-.05s-.47,0-.68,0l-.52,0c-.21,0-.42,0-.62.05a9.39,9.39,0,0,0-1.2.2,11,11,0,0,0-2.18.75,14,14,0,0,0-3.36,2.27,21.89,21.89,0,0,0-2.5,2.63,50.65,50.65,0,0,0-6.56,11.37c-.86,1.94-1.62,3.91-2.35,5.88s-1.39,4-2,5.94a177.11,177.11,0,0,0-5.7,24.23c.73-1.94,1.45-3.87,2.2-5.79s1.52-3.84,2.29-5.74c1.56-3.81,3.17-7.58,4.88-11.28S72,119.52,74,116.05c1-1.73,2-3.42,3.15-5a34.9,34.9,0,0,1,3.55-4.38,11,11,0,0,1,3.76-2.7,3,3,0,0,1,.76-.18l.33,0h.18c-.14,0,0,0,0,0h0l.19,0,.1,0,.15,0a1.39,1.39,0,0,1,.28.12,2.66,2.66,0,0,1,.51.34,8.72,8.72,0,0,1,2.17,3.23,39,39,0,0,1,1.79,5.11c.51,1.85,1,3.77,1.5,5.75l.74,3c.27,1,.54,2,.84,3.07a55.22,55.22,0,0,0,2.15,6.39,30.8,30.8,0,0,0,1.67,3.36,17.31,17.31,0,0,0,2.63,3.48,11.8,11.8,0,0,0,4.52,2.92,10.87,10.87,0,0,0,2.84.58,15.77,15.77,0,0,0,2.32,0,26,26,0,0,0,7.36-1.77,61.13,61.13,0,0,0,6.07-2.79c1.88-1,3.67-2,5.42-2.86a46.24,46.24,0,0,1,5.06-2.36,22.72,22.72,0,0,1,2.38-.78c.39-.1.77-.19,1.14-.25l.56-.08.27,0h0s.15,0-.08,0h.44a1,1,0,0,1,.28,0,3,3,0,0,1,.67.23,6.67,6.67,0,0,1,1.65,1.13,20.79,20.79,0,0,1,3.33,4,68.5,68.5,0,0,1,5.44,10.4c.8,1.84,1.55,3.72,2.28,5.61s1.44,3.8,2.12,5.73c1.36,3.85,2.63,7.75,3.85,11.68S160.84,177,162,181a179.45,179.45,0,0,0-3.24-24.69"/><polygon class="cls-1" points="138.7 130.29 138.69 130.29 138.69 130.29 138.7 130.29"/><path class="cls-1" d="M104.93,87.1c2-3.27,1.11-8.53,0-11.93a17.92,17.92,0,0,0-3.24-5.92c-6.23-7.21-14.72-3-16.94,1.61-5.86,12,17.49,20.71,20.21,16.24"/><path class="cls-1" d="M118.37,96.6l.08-.08c.55-.58,1-1.06,1.41-1.58s.85-1,1.26-1.56c.82-1,1.59-2.11,2.34-3.19a70.71,70.71,0,0,0,4.05-6.71A61.53,61.53,0,0,0,133,69a51.62,51.62,0,0,0,1.29-15.29A50.06,50.06,0,0,0,131,39a49.15,49.15,0,0,1,1.36,14.7,48.38,48.38,0,0,1-3.08,14.14,56.24,56.24,0,0,1-6.78,12.6A61.31,61.31,0,0,1,118.06,86c-.79.88-1.61,1.73-2.44,2.55q-.62.61-1.26,1.2c-.41.37-.87.78-1.23,1.05a5,5,0,0,0-.42.38,3.93,3.93,0,0,0,5.66,5.46"/><polygon class="cls-1" points="124.02 35.74 129.56 31.43 136.25 33.55 133.86 26.95 137.95 21.25 130.94 21.48 126.77 15.83 124.82 22.57 118.16 24.78 123.97 28.72 124.02 35.74"/><polygon class="cls-1" points="133.32 15.86 136.53 13.37 140.4 14.6 139.02 10.77 141.38 7.47 137.32 7.6 134.91 4.33 133.78 8.23 129.93 9.52 133.29 11.8 133.32 15.86"/><polygon class="cls-1" points="122.68 14.3 124.02 12.43 126.33 12.47 124.96 10.62 125.71 8.44 123.53 9.17 121.69 7.78 121.7 10.08 119.81 11.4 122.01 12.1 122.68 14.3"/><polygon class="cls-1" points="124.67 6.43 126.61 5.19 128.73 6.08 128.15 3.85 129.65 2.1 127.35 1.97 126.15 0 125.32 2.15 123.07 2.68 124.86 4.14 124.67 6.43"/></svg>